<?xml version="1.0" encoding="UTF-8"?>
<svg width="20px" height="20px" viewBox="0 0 20 20" version="1.1" xmlns="http://www.w3.org/2000/svg" xmlns:xlink="http://www.w3.org/1999/xlink">
    <!-- Generator: Sketch 51.3 (57544) - http://www.bohemiancoding.com/sketch -->
    <title>Artboard</title>
    <desc>Created with Sketch.</desc>
    <defs></defs>
    <g id="Artboard" stroke="none" stroke-width="1" fill="none" fill-rule="evenodd">
        <g id="Group" fill="#4F4F4F" fill-rule="nonzero">
            <path d="M10,13.8116883 C9.02597403,13.8116883 8.04545455,13.4415584 7.30519481,12.6948052 C5.81818182,11.2077922 5.81818182,8.79220779 7.30519481,7.30519481 C8.79220779,5.81818182 11.2077922,5.81818182 12.6948052,7.30519481 C14.1818182,8.79220779 14.1818182,11.2077922 12.6948052,12.6948052 C11.9545455,13.4415584 10.974026,13.8116883 10,13.8116883 Z M10,7.74675325 C9.42207792,7.74675325 8.84415584,7.96753247 8.4025974,8.40909091 C7.52597403,9.28571429 7.52597403,10.7207792 8.4025974,11.5974026 C9.27922078,12.474026 10.7142857,12.474026 11.5909091,11.5974026 C12.4675325,10.7207792 12.4675325,9.28571429 11.5909091,8.40909091 C11.1558442,7.96753247 10.5779221,7.74675325 10,7.74675325 Z" id="Shape"></path>
            <path d="M10,19.9805195 C8.73376623,19.9805195 7.58441558,19.1753247 7.14285714,17.987013 C7.09090909,17.8441558 6.98701299,17.7337662 6.86363636,17.6818182 C6.83766234,17.6753247 6.81818182,17.6623377 6.79220779,17.6493506 C6.66883117,17.5974026 6.52597403,17.5974026 6.42207792,17.6493506 C5.25324675,18.2077922 3.85714286,17.974026 2.94805195,17.0584416 C2.03896104,16.1428571 1.7987013,14.7467532 2.35714286,13.5844156 C2.40909091,13.474026 2.40909091,13.3376623 2.35714286,13.2142857 C2.34415584,13.1883117 2.33766234,13.1688312 2.32467532,13.1428571 C2.27272727,13.0194805 2.16233766,12.9155844 2.01948052,12.8636364 C0.824675325,12.4220779 0.025974026,11.2727273 0.025974026,10.0064935 C0.025974026,8.74025974 0.824675325,7.59090909 2.01948052,7.14935065 C2.16233766,7.0974026 2.28571429,6.97402597 2.35064935,6.81168831 L2.35714286,6.80519481 C2.40909091,6.67532468 2.40909091,6.53896104 2.35714286,6.42857143 C1.7987013,5.25974026 2.03246753,3.86363636 2.94805195,2.95454545 C3.86363636,2.03896104 5.25974026,1.80519481 6.42207792,2.36363636 C6.53246753,2.41558442 6.66883117,2.41558442 6.79220779,2.36363636 C6.81818182,2.35064935 6.83766234,2.34415584 6.86363636,2.33116883 C6.98701299,2.27922078 7.08441558,2.16883117 7.14285714,2.02597403 C7.58441558,0.831168831 8.73376623,0.0324675325 10,0.0324675325 C11.2662338,0.0324675325 12.4155844,0.837662338 12.8571429,2.02597403 C12.9090909,2.16883117 13.012987,2.27922078 13.1363636,2.33116883 C13.1623377,2.33766234 13.1818182,2.35064935 13.2077922,2.36363636 C13.3311688,2.41558442 13.4675325,2.41558442 13.5779221,2.36363636 C14.7467532,1.80519481 16.1428571,2.03896104 17.0519481,2.95454545 C17.9675325,3.87012987 18.2012987,5.26623377 17.6428571,6.42857143 C17.5909091,6.53896104 17.5909091,6.67532468 17.6428571,6.7987013 C17.6558442,6.82467532 17.6623377,6.84415584 17.6753247,6.87012987 C17.7272727,6.99350649 17.8376623,7.0974026 17.9805195,7.14935065 C19.1753247,7.59090909 19.974026,8.74025974 19.974026,10.0064935 C19.974026,11.2727273 19.1688312,12.4220779 17.9805195,12.8636364 C17.8376623,12.9155844 17.7272727,13.0194805 17.6753247,13.1428571 C17.6623377,13.1688312 17.6558442,13.1883117 17.6428571,13.2142857 C17.5909091,13.3376623 17.5909091,13.474026 17.6428571,13.5844156 C18.2012987,14.7532468 17.9675325,16.1493506 17.0519481,17.0584416 C16.1363636,17.974026 14.7402597,18.2077922 13.5779221,17.6493506 C13.4675325,17.5974026 13.3311688,17.5974026 13.2077922,17.6493506 C13.1818182,17.6623377 13.1623377,17.6688312 13.1363636,17.6818182 C13.012987,17.7337662 12.9155844,17.8441558 12.8571429,17.987013 C12.4155844,19.1753247 11.2662338,19.9805195 10,19.9805195 Z M6.5974026,16.0454545 C6.86363636,16.0454545 7.13636364,16.0974026 7.3961039,16.2077922 C7.41558442,16.2142857 7.43506494,16.2207792 7.45454545,16.2337662 C7.98051948,16.4480519 8.4025974,16.8896104 8.6038961,17.4415584 C8.81818182,18.025974 9.38311688,18.4220779 10,18.4220779 C10.6168831,18.4220779 11.1818182,18.025974 11.3961039,17.4415584 C11.5974026,16.8896104 12.0194805,16.4480519 12.5454545,16.2337662 C12.5649351,16.2272727 12.5844156,16.2207792 12.6038961,16.2077922 C13.1428571,15.9805195 13.7402597,15.9935065 14.2532468,16.2402597 C14.8246753,16.512987 15.5064935,16.4025974 15.9545455,15.9545455 C16.4025974,15.5064935 16.512987,14.8246753 16.2402597,14.2532468 C15.9935065,13.7402597 15.9805195,13.1428571 16.2077922,12.6038961 C16.2142857,12.5844156 16.2207792,12.5649351 16.2337662,12.5454545 C16.4480519,12.0194805 16.8896104,11.5974026 17.4415584,11.3961039 C18.025974,11.1818182 18.4220779,10.6168831 18.4220779,10 C18.4220779,9.38311688 18.025974,8.81818182 17.4415584,8.6038961 C16.8896104,8.4025974 16.4480519,7.98051948 16.2337662,7.45454545 C16.2272727,7.43506494 16.2207792,7.41558442 16.2077922,7.3961039 C15.9805195,6.85714286 15.9935065,6.25974026 16.2402597,5.74675325 C16.512987,5.17532468 16.3961039,4.49350649 15.9545455,4.04545455 C15.5064935,3.5974026 14.8246753,3.48701299 14.2532468,3.75974026 C13.7402597,4.00649351 13.1428571,4.01948052 12.6038961,3.79220779 C12.5844156,3.78571429 12.5649351,3.77922078 12.5454545,3.76623377 C12.0194805,3.55194805 11.5974026,3.11038961 11.3961039,2.55844156 C11.1818182,1.97402597 10.6168831,1.57792208 10,1.57792208 C9.38311688,1.57792208 8.81818182,1.97402597 8.6038961,2.55844156 C8.4025974,3.11038961 7.98051948,3.55194805 7.45454545,3.76623377 C7.43506494,3.77272727 7.41558442,3.77922078 7.3961039,3.79220779 C6.85714286,4.01948052 6.25974026,4.00649351 5.74675325,3.75974026 C5.17532468,3.48701299 4.49350649,3.6038961 4.04545455,4.04545455 C3.5974026,4.49350649 3.48701299,5.17532468 3.75974026,5.74675325 C4.00649351,6.25974026 4.01948052,6.85714286 3.79220779,7.3961039 L3.78571429,7.40909091 C3.55194805,7.96753247 3.1038961,8.4025974 2.55844156,8.6038961 C1.97402597,8.81818182 1.58441558,9.38311688 1.58441558,10 C1.58441558,10.6168831 1.98051948,11.1818182 2.56493506,11.3961039 C3.11688312,11.5974026 3.55844156,12.0194805 3.77272727,12.5454545 L3.7987013,12.6038961 C4.02597403,13.1428571 4.01298701,13.7402597 3.76623377,14.2532468 C3.49350649,14.8246753 3.61038961,15.5064935 4.05194805,15.9545455 C4.5,16.4025974 5.18181818,16.512987 5.75324675,16.2402597 C6.01298701,16.1103896 6.30519481,16.0454545 6.5974026,16.0454545 Z" id="Shape"></path>
        </g>
    </g>
</svg>