<?xml version="1.0" encoding="UTF-8"?>
<svg width="20px" height="20px" viewBox="0 0 20 20" version="1.1" xmlns="http://www.w3.org/2000/svg" xmlns:xlink="http://www.w3.org/1999/xlink">
    <!-- Generator: Sketch 51.3 (57544) - http://www.bohemiancoding.com/sketch -->
    <title>Artboard Copy</title>
    <desc>Created with Sketch.</desc>
    <defs></defs>
    <g id="Artboard-Copy" stroke="none" stroke-width="1" fill="none" fill-rule="evenodd">
        <path d="M4,6.79542567 C4.00356165,6.83142736 4.19232899,12.9085133 4.31698667,16.4042778 C4.3419182,17.1063109 4.63397333,17.7615417 5.13260404,18.2475646 C5.6347964,18.7371876 6.29370127,19 6.98822262,19 C6.98822262,19 6.98822262,19 6.98822262,19 L13.5238466,19 C14.2219296,19 14.8808344,18.7299873 15.3830268,18.2403643 C15.8852192,17.7507412 16.1737126,17.0955104 16.1986442,16.3934773 L16.5263158,6.79542567 C16.5263158,6.79542567 16.5263158,6.77382465 16.5263158,6.76662431 C16.5263158,6.37060568 16.2057675,6.03939009 15.8139862,6.03939009 L13.7909702,6.03939009 L13.7909702,5.57136806 C13.7909702,3.60207539 12.2131601,2 10.2649387,2 C8.3167173,2 6.73890726,3.60207539 6.73890726,5.57136806 L6.73890726,6.03939009 L4.71232959,6.03939009 C4.32054831,6.03939009 4,6.36700551 4,6.76662431 C4,6.77382465 4,6.79542567 4,6.79542567 Z M8.16356644,5.57136806 C8.16356644,4.39771283 9.10384149,3.44006777 10.2649387,3.44006777 C11.4260359,3.44006777 12.366311,4.39771283 12.366311,5.57136806 L12.366311,6.03939009 L8.16356644,6.03939009 L8.16356644,5.57136806 Z M7.45123685,10.7232105 C7.84301812,10.7232105 8.16356644,10.3991953 8.16356644,10.0031766 L8.16356644,7.47945786 L12.366311,7.47945786 L12.366311,10.0031766 C12.366311,10.3991953 12.6868593,10.7232105 13.0786406,10.7232105 C13.4704219,10.7232105 13.7909702,10.3991953 13.7909702,10.0031766 L13.7909702,7.47945786 L15.0802867,7.47945786 L14.7775467,16.3394748 C14.7526151,17.023507 14.2041213,17.5599322 13.5274082,17.5599322 L6.99178427,17.5599322 C6.99178427,17.5599322 6.99178427,17.5599322 6.99178427,17.5599322 C6.31507116,17.5599322 5.76657738,17.023507 5.74164584,16.343075 C5.6419197,13.5781449 5.50301543,9.20753918 5.44959071,7.47945786 L6.73890726,7.47945786 L6.73890726,10.0031766 C6.73890726,10.4027954 7.05945558,10.7232105 7.45123685,10.7232105 Z" id="Shape" fill="#65A79C" fill-rule="nonzero"></path>
    </g>
</svg>